{
  "accessors": [
    {
      "bufferView": 1,
      "componentType": 5126,
      "count": 55624,
      "max": [
        24.151397705078125,
        40.417209625244141,
        43.209018707275391
      ],
      "min": [
        -107.69625091552734,
        -139.92747497558594,
        -158.5869140625
      ],
      "type": "VEC3"
    },
    {
      "bufferView": 1,
      "byteOffset": 667488,
      "componentType": 5126,
      "count": 55624,
      "max": [
        1,
        1,
        1
      ],
      "min": [
        -1,
        -1,
        -1
      ],
      "type": "VEC3"
    },
    {
      "bufferView": 0,
      "componentType": 5125,
      "count": 229146,
      "max": [
        55623
      ],
      "min": [
        0
      ],
      "type": "SCALAR"
    }
  ],
  "asset": {
    "extras": {
      "author": "Toxicsquall (https://sketchfab.com/toxicsquall)",
      "license": "CC-BY-NC-ND-4.0 (http://creativecommons.org/licenses/by-nc-nd/4.0/)",
      "source": "https://sketchfab.com/models/7be72f58eb1c43cb8450442a17a98970",
      "title": "Bowser's Castle Dice Tower"
    },
    "generator": "Sketchfab-3.18.7",
    "version": "2.0"
  },
  "bufferViews": [
    {
      "buffer": 0,
      "byteLength": 916584,
      "byteOffset": 0,
      "name": "floatBufferViews",
      "target": 34963
    },
    {
      "buffer": 0,
      "byteLength": 1334976,
      "byteOffset": 916584,
      "byteStride": 12,
      "name": "floatBufferViews",
      "target": 34962
    }
  ],
  "buffers": [
    {
      "byteLength": 2251560,
      "uri": "scene.bin"
    }
  ],
  "materials": [
    {
      "doubleSided": true,
      "emissiveFactor": [
        0,
        0,
        0
      ],
      "name": "Compound_mesh_0",
      "pbrMetallicRoughness": {
        "baseColorFactor": [
          0.19028566860000001,
          0.19028566860000001,
          0.19028566860000001,
          1
        ],
        "metallicFactor": 1,
        "roughnessFactor": 0.34584603660000002
      }
    }
  ],
  "meshes": [
    {
      "primitives": [
        {
          "attributes": {
            "NORMAL": 1,
            "POSITION": 0
          },
          "indices": 2,
          "material": 0,
          "mode": 4
        }
      ]
    }
  ],
  "nodes": [
    {
      "children": [
        1
      ],
      "name": "RootNode (gltf orientation matrix)",
      "rotation": [
        -0.70710678118654746,
        -0,
        -0,
        0.70710678118654757
      ]
    },
    {
      "children": [
        2
      ],
      "matrix": [
        0.8122631311416626,
        0.059697460383176804,
        -0.58022820949554443,
        0,
        0,
        0.99474889039993286,
        0.10234589874744415,
        0,
        0.58329117298126221,
        -0.083131797611713409,
        0.80799782276153564,
        0,
        25.807239532470703,
        -2.5633597373962402,
        -30.221527099609375,
        1
      ],
      "name": "RootNode (model correction matrix)"
    },
    {
      "children": [
        3
      ],
      "name": "Bowser Dice Tower.obj.cleaner.materialmerger.gles"
    },
    {
      "mesh": 0,
      "name": ""
    }
  ],
  "scene": 0,
  "scenes": [
    {
      "name": "OSG_Scene",
      "nodes": [
        0
      ]
    }
  ]
}

