{"asset":{"generator":"3D Builder","version":"2.0"},"scene":0,"scenes":[{"nodes":[0]}],"nodes":[{"mesh":0,"matrix":[0.99999994039535522,0,0,0,0,-1.1920928244535389E-7,-0.99999982118606567,0,0,0.99999982118606567,-1.1920928244535389E-7,0,0.04176618903875351,0.040417198091745377,-0.057588487863540649,1]}],"meshes":[{"primitives":[{"attributes":{"POSITION":0},"mode":4,"indices":1,"material":0}]}],"materials":[{"name":"Regular","pbrMetallicRoughness":{"baseColorFactor":[0.21586053073406219,0.21586053073406219,0.21586053073406219,1],"metallicFactor":0,"roughnessFactor":1}}],"accessors":[{"bufferView":0,"byteOffset":0,"count":39335,"componentType":5126,"type":"VEC3","min":[-0.10769625753164291,-0.15858691930770874,-0.04041721299290657],"max":[0.024151399731636047,0.0432090200483799,0.139927476644516]},{"bufferView":1,"byteOffset":0,"count":229146,"componentType":5125,"type":"SCALAR"}],"bufferViews":[{"buffer":0,"byteOffset":0,"byteLength":472020,"byteStride":12,"target":34962},{"buffer":0,"byteOffset":472020,"byteLength":916584,"target":34963}],"buffers":[{"byteLength":1388604,"uri":"scene.bin"}]}