{
  "accessors": [
    {
      "bufferView": 1,
      "componentType": 5126,
      "count": 65532,
      "max": [
        24.203214645385742,
        21.933862686157227,
        24.205146789550781
      ],
      "min": [
        -3.1627831731384504e-07,
        1.3185025409256923e-06,
        -5.4740922905693878e-07
      ],
      "type": "VEC3"
    },
    {
      "bufferView": 1,
      "byteOffset": 786384,
      "componentType": 5126,
      "count": 65532,
      "max": [
        0.99999946355819702,
        1,
        0.99999427795410156
      ],
      "min": [
        -0.99999970197677612,
        -1,
        -0.99999743700027466
      ],
      "type": "VEC3"
    },
    {
      "bufferView": 2,
      "componentType": 5126,
      "count": 65532,
      "max": [
        0.49803921580314636,
        0.49803921580314636,
        0.49803921580314636,
        0.12549020349979401
      ],
      "min": [
        0.49803921580314636,
        0.49803921580314636,
        0.49803921580314636,
        0.12549020349979401
      ],
      "type": "VEC4"
    },
    {
      "bufferView": 0,
      "componentType": 5125,
      "count": 294864,
      "max": [
        65531
      ],
      "min": [
        0
      ],
      "type": "SCALAR"
    },
    {
      "bufferView": 1,
      "byteOffset": 1572768,
      "componentType": 5126,
      "count": 65532,
      "max": [
        23.483139038085938,
        25.033952713012695,
        24.140169143676758
      ],
      "min": [
        0.15813642740249634,
        0.00077335606329143047,
        1.089895486831665
      ],
      "type": "VEC3"
    },
    {
      "bufferView": 1,
      "byteOffset": 2359152,
      "componentType": 5126,
      "count": 65532,
      "max": [
        0.99999511241912842,
        1,
        0.99999850988388062
      ],
      "min": [
        -0.99999892711639404,
        -1,
        -0.99999964237213135
      ],
      "type": "VEC3"
    },
    {
      "bufferView": 2,
      "byteOffset": 1048512,
      "componentType": 5126,
      "count": 65532,
      "max": [
        0.49803921580314636,
        0.49803921580314636,
        0.49803921580314636,
        0.12549020349979401
      ],
      "min": [
        0.49803921580314636,
        0.49803921580314636,
        0.49803921580314636,
        0.12549020349979401
      ],
      "type": "VEC4"
    },
    {
      "bufferView": 0,
      "byteOffset": 1179456,
      "componentType": 5125,
      "count": 331299,
      "max": [
        65531
      ],
      "min": [
        0
      ],
      "type": "SCALAR"
    },
    {
      "bufferView": 1,
      "byteOffset": 3145536,
      "componentType": 5126,
      "count": 65532,
      "max": [
        24.134687423706055,
        25.399993896484375,
        24.199710845947266
      ],
      "min": [
        0.0084973946213722229,
        0.00035554755595512688,
        0.019074834883213043
      ],
      "type": "VEC3"
    },
    {
      "bufferView": 1,
      "byteOffset": 3931920,
      "componentType": 5126,
      "count": 65532,
      "max": [
        0.99999946355819702,
        1,
        0.99997282028198242
      ],
      "min": [
        -0.99999332427978516,
        -1,
        -0.99999672174453735
      ],
      "type": "VEC3"
    },
    {
      "bufferView": 2,
      "byteOffset": 2097024,
      "componentType": 5126,
      "count": 65532,
      "max": [
        0.49803921580314636,
        0.49803921580314636,
        0.49803921580314636,
        0.12549020349979401
      ],
      "min": [
        0.49803921580314636,
        0.49803921580314636,
        0.49803921580314636,
        0.12549020349979401
      ],
      "type": "VEC4"
    },
    {
      "bufferView": 0,
      "byteOffset": 2504652,
      "componentType": 5125,
      "count": 295521,
      "max": [
        65531
      ],
      "min": [
        0
      ],
      "type": "SCALAR"
    },
    {
      "bufferView": 1,
      "byteOffset": 4718304,
      "componentType": 5126,
      "count": 28221,
      "max": [
        24.176204681396484,
        25.395927429199219,
        24.201793670654297
      ],
      "min": [
        -3.1627831731384504e-07,
        1.3185025409256923e-06,
        0.0016086209798231721
      ],
      "type": "VEC3"
    },
    {
      "bufferView": 1,
      "byteOffset": 5056956,
      "componentType": 5126,
      "count": 28221,
      "max": [
        0.99999469518661499,
        1,
        0.99999350309371948
      ],
      "min": [
        -0.99999916553497314,
        -1,
        -0.99999898672103882
      ],
      "type": "VEC3"
    },
    {
      "bufferView": 2,
      "byteOffset": 3145536,
      "componentType": 5126,
      "count": 28221,
      "max": [
        0.49803921580314636,
        0.49803921580314636,
        0.49803921580314636,
        0.12549020349979401
      ],
      "min": [
        0.49803921580314636,
        0.49803921580314636,
        0.49803921580314636,
        0.12549020349979401
      ],
      "type": "VEC4"
    },
    {
      "bufferView": 0,
      "byteOffset": 3686736,
      "componentType": 5125,
      "count": 51381,
      "max": [
        28220
      ],
      "min": [
        0
      ],
      "type": "SCALAR"
    }
  ],
  "asset": {
    "extras": {
      "author": "jakatoa (https://sketchfab.com/jakatoa)",
      "license": "CC-BY-4.0 (http://creativecommons.org/licenses/by/4.0/)",
      "source": "https://sketchfab.com/models/8cf2507731a04e1cb74c01a1b5e094d1",
      "title": "Elven Archer"
    },
    "generator": "Sketchfab-4.1.6",
    "version": "2.0"
  },
  "bufferViews": [
    {
      "buffer": 0,
      "byteLength": 3892260,
      "byteOffset": 0,
      "name": "floatBufferViews",
      "target": 34963
    },
    {
      "buffer": 0,
      "byteLength": 5395608,
      "byteOffset": 3892260,
      "byteStride": 12,
      "name": "floatBufferViews",
      "target": 34962
    },
    {
      "buffer": 0,
      "byteLength": 3597072,
      "byteOffset": 9287868,
      "byteStride": 16,
      "name": "floatBufferViews",
      "target": 34962
    }
  ],
  "buffers": [
    {
      "byteLength": 12884940,
      "uri": "scene.bin"
    }
  ],
  "materials": [
    {
      "doubleSided": true,
      "name": "Scene_-_Root",
      "pbrMetallicRoughness": {
        "baseColorFactor": [
          1,
          1,
          1,
          1
        ],
        "metallicFactor": 0,
        "roughnessFactor": 0.59999999999999998
      }
    }
  ],
  "meshes": [
    {
      "primitives": [
        {
          "attributes": {
            "COLOR_0": 2,
            "NORMAL": 1,
            "POSITION": 0
          },
          "indices": 3,
          "material": 0,
          "mode": 4
        }
      ]
    },
    {
      "primitives": [
        {
          "attributes": {
            "COLOR_0": 6,
            "NORMAL": 5,
            "POSITION": 4
          },
          "indices": 7,
          "material": 0,
          "mode": 4
        }
      ]
    },
    {
      "primitives": [
        {
          "attributes": {
            "COLOR_0": 10,
            "NORMAL": 9,
            "POSITION": 8
          },
          "indices": 11,
          "material": 0,
          "mode": 4
        }
      ]
    },
    {
      "primitives": [
        {
          "attributes": {
            "COLOR_0": 14,
            "NORMAL": 13,
            "POSITION": 12
          },
          "indices": 15,
          "material": 0,
          "mode": 4
        }
      ]
    }
  ],
  "nodes": [
    {
      "children": [
        1
      ],
      "name": "RootNode (gltf orientation matrix)",
      "rotation": [
        -0.70710678118654746,
        -0,
        -0,
        0.70710678118654757
      ]
    },
    {
      "children": [
        2
      ],
      "matrix": [
        0.48869144916534424,
        0.86977148056030273,
        0.068397827446460724,
        0,
        -0.080060765147209167,
        -0.033359412103891373,
        0.99623161554336548,
        0,
        0.86877554655075073,
        -0.49232587218284607,
        0.053332105278968811,
        0,
        -3.3099777698516846,
        8.5564146041870117,
        -2.0227482318878174,
        1
      ],
      "name": "RootNode (model correction matrix)"
    },
    {
      "children": [
        3,
        4,
        5,
        6
      ],
      "name": "Elven_Archer.stl.cleaner.materialmerger.gles"
    },
    {
      "mesh": 0,
      "name": ""
    },
    {
      "mesh": 1,
      "name": ""
    },
    {
      "mesh": 2,
      "name": ""
    },
    {
      "mesh": 3,
      "name": ""
    }
  ],
  "scene": 0,
  "scenes": [
    {
      "name": "OSG_Scene",
      "nodes": [
        0
      ]
    }
  ]
}

