{
  "accessors": [
    {
      "bufferView": 1,
      "componentType": 5126,
      "count": 65532,
      "max": [
        1.814194917678833,
        1.8016029596328735,
        2.6395668983459473
      ],
      "min": [
        0,
        0,
        0
      ],
      "type": "VEC3"
    },
    {
      "bufferView": 1,
      "byteOffset": 786384,
      "componentType": 5126,
      "count": 65532,
      "max": [
        0.99999856948852539,
        0.99998891353607178,
        0.99997103214263916
      ],
      "min": [
        -0.99996727705001831,
        -0.9999886155128479,
        -1
      ],
      "type": "VEC3"
    },
    {
      "bufferView": 0,
      "componentType": 5125,
      "count": 302427,
      "max": [
        65531
      ],
      "min": [
        0
      ],
      "type": "SCALAR"
    },
    {
      "bufferView": 1,
      "byteOffset": 1572768,
      "componentType": 5126,
      "count": 39665,
      "max": [
        1.501816987991333,
        1.667341947555542,
        2.6395668983459473
      ],
      "min": [
        0.31239598989486694,
        0.25151395797729492,
        0.078492999076843262
      ],
      "type": "VEC3"
    },
    {
      "bufferView": 1,
      "byteOffset": 2048748,
      "componentType": 5126,
      "count": 39665,
      "max": [
        0.99996262788772583,
        0.99999725818634033,
        0.99999696016311646
      ],
      "min": [
        -0.99999487400054932,
        -0.99999672174453735,
        -0.9999774694442749
      ],
      "type": "VEC3"
    },
    {
      "bufferView": 0,
      "byteOffset": 1209708,
      "componentType": 5125,
      "count": 194883,
      "max": [
        39664
      ],
      "min": [
        0
      ],
      "type": "SCALAR"
    }
  ],
  "asset": {
    "extras": {
      "author": "Hunter Black (https://sketchfab.com/Twistedironpaw)",
      "license": "CC-BY-4.0 (http://creativecommons.org/licenses/by/4.0/)",
      "source": "https://sketchfab.com/models/0edb7e0bd2b94cf883fc082730c8c32d",
      "title": "Ourok, Half-Orc Bard (for 3D printing)"
    },
    "generator": "Sketchfab-3.18.6",
    "version": "2.0"
  },
  "bufferViews": [
    {
      "buffer": 0,
      "byteLength": 1989240,
      "byteOffset": 0,
      "name": "floatBufferViews",
      "target": 34963
    },
    {
      "buffer": 0,
      "byteLength": 2524728,
      "byteOffset": 1989240,
      "byteStride": 12,
      "name": "floatBufferViews",
      "target": 34962
    }
  ],
  "buffers": [
    {
      "byteLength": 4513968,
      "uri": "scene.bin"
    }
  ],
  "materials": [
    {
      "doubleSided": true,
      "emissiveFactor": [
        0,
        0,
        0
      ],
      "name": "null",
      "pbrMetallicRoughness": {
        "baseColorFactor": [
          1,
          1,
          1,
          1
        ],
        "metallicFactor": 0.65415396339999998,
        "roughnessFactor": 0.60537347559999999
      }
    }
  ],
  "meshes": [
    {
      "primitives": [
        {
          "attributes": {
            "NORMAL": 1,
            "POSITION": 0
          },
          "indices": 2,
          "material": 0,
          "mode": 4
        }
      ]
    },
    {
      "primitives": [
        {
          "attributes": {
            "NORMAL": 4,
            "POSITION": 3
          },
          "indices": 5,
          "material": 0,
          "mode": 4
        }
      ]
    }
  ],
  "nodes": [
    {
      "children": [
        1
      ],
      "name": "RootNode (gltf orientation matrix)",
      "rotation": [
        -0.70710678118654746,
        -0,
        -0,
        0.70710678118654757
      ]
    },
    {
      "children": [
        2
      ],
      "name": "RootNode (model correction matrix)"
    },
    {
      "children": [
        3,
        4
      ],
      "matrix": [
        1,
        0,
        0,
        0,
        0,
        1,
        0,
        0,
        0,
        0,
        1,
        0,
        -0.89634400606155396,
        -0.88622498512268066,
        -0.0075759999454021454,
        1
      ],
      "name": "Full Figure PRINTFIX.obj.cleaner.gles"
    },
    {
      "mesh": 0,
      "name": ""
    },
    {
      "mesh": 1,
      "name": ""
    }
  ],
  "scene": 0,
  "scenes": [
    {
      "name": "OSG_Scene",
      "nodes": [
        0
      ]
    }
  ]
}

