{"asset":{"generator":"3D Builder","version":"2.0"},"scene":0,"scenes":[{"nodes":[0]}],"nodes":[{"mesh":0,"matrix":[1,0,0,0,0,-1.1920928955078125E-7,-0.99999988079071045,0,0,0.99999988079071045,-1.1920928955078125E-7,0,0,0.005079999566078186,-6.0558319470160882E-10,1]}],"meshes":[{"primitives":[{"attributes":{"POSITION":0},"mode":4,"indices":2,"material":0},{"attributes":{"POSITION":1},"mode":4,"indices":3,"material":1}]}],"materials":[{"name":"Light","pbrMetallicRoughness":{"baseColorFactor":[0.36724650859832764,0.36724650859832764,0.36724650859832764,1],"metallicFactor":0,"roughnessFactor":1}},{"name":"Material.001","pbrMetallicRoughness":{"baseColorFactor":[0.36724650859832764,0.36724650859832764,0.36724650859832764,1],"metallicFactor":0,"roughnessFactor":1}}],"accessors":[{"bufferView":0,"byteOffset":0,"count":640,"componentType":5126,"type":"VEC3","min":[-0.0011927586747333407,0.02809341624379158,-0.0015823438297957182],"max":[0.0043123611249029636,0.039067178964614868,0.004666818305850029]},{"bufferView":0,"byteOffset":7680,"count":1665,"componentType":5126,"type":"VEC3","min":[-0.0050800000317394733,0,-0.0050800000317394733],"max":[0.0050800000317394733,0.03515956923365593,0.0050800000317394733]},{"bufferView":1,"byteOffset":0,"count":3264,"componentType":5125,"type":"SCALAR"},{"bufferView":1,"byteOffset":13056,"count":8634,"componentType":5125,"type":"SCALAR"}],"bufferViews":[{"buffer":0,"byteOffset":0,"byteLength":27660,"byteStride":12,"target":34962},{"buffer":0,"byteOffset":27660,"byteLength":47592,"target":34963}],"buffers":[{"byteLength":75252,"uri":"scene.bin"}]}